<svg width="42" height="42" viewBox="0 0 42 42" fill="none" xmlns="http://www.w3.org/2000/svg">
<circle cx="21" cy="21" r="20" stroke="#1358E3" stroke-width="2"/>
<path d="M14 15.5419V26.0402C14 27.5467 14 28.3004 14.221 28.7609C14.4209 29.1775 14.7439 29.5194 15.1444 29.7383C15.5449 29.9571 16.0025 30.0419 16.4527 29.9806C16.951 29.9142 17.5642 29.4958 18.7905 28.6601L18.7938 28.6579C19.2802 28.3259 19.5228 28.1609 19.7774 28.0691C20.2446 27.9004 20.7543 27.9004 21.2215 28.0691C21.4761 28.1609 21.7198 28.327 22.2084 28.6601C23.4358 29.4958 24.0501 29.9131 24.5484 29.9806C24.9984 30.0417 25.4558 29.9568 25.8561 29.7379C26.2563 29.519 26.5791 29.1773 26.779 28.7609C27 28.3004 27 27.5467 27 26.0402V15.5386C27 14.3011 27 13.6813 26.7638 13.2087C26.5558 12.792 26.2239 12.4534 25.8159 12.2413C25.3533 12 24.7467 12 23.5333 12H17.4667C16.2533 12 15.6467 12 15.183 12.2413C14.7753 12.4535 14.4438 12.7921 14.2362 13.2087C14 13.6824 14 14.3022 14 15.5419Z" stroke="#1358E3" stroke-width="2" stroke-linecap="round" stroke-linejoin="round"/>
</svg>
