<svg width="42" height="42" viewBox="0 0 42 42" fill="none" xmlns="http://www.w3.org/2000/svg">
<circle cx="21" cy="21" r="20" stroke="#1358E3" stroke-width="2"/>
<g clip-path="url(#clip0_274_3963)">
<path d="M24.5153 12.6413L18.0128 19.1437C15.2919 21.8715 13.2314 25.1858 11.9891 28.8328C11.9299 29.0053 11.9205 29.191 11.9619 29.3686C12.0034 29.5462 12.094 29.7086 12.2235 29.837L12.2269 29.8404C12.317 29.9312 12.4242 30.0033 12.5422 30.0525C12.6603 30.1017 12.7869 30.1271 12.9148 30.1272C13.0225 30.1272 13.1294 30.1094 13.2313 30.0747C16.8783 28.8325 20.1926 26.7719 22.9203 24.051L29.4225 17.5486C30.0733 16.8979 30.4389 16.0153 30.4389 15.095C30.4389 14.1747 30.0733 13.2921 29.4226 12.6413C29.1003 12.3191 28.7178 12.0635 28.2968 11.8891C27.8758 11.7148 27.4246 11.625 26.9689 11.625C26.0486 11.625 25.166 11.9906 24.5153 12.6413ZM22.0363 23.1671C19.5786 25.6184 16.6184 27.5074 13.36 28.7039C14.5565 25.4455 16.4454 22.4853 18.8967 20.0276L22.7702 16.1541L25.9097 19.2937L22.0363 23.1671ZM28.5387 16.6648L26.7936 18.4098L23.6541 15.2703L25.3991 13.5252C25.6052 13.3186 25.8499 13.1546 26.1194 13.0426C26.3889 12.9306 26.6778 12.8729 26.9696 12.8727C27.2614 12.8725 27.5504 12.9298 27.82 13.0414C28.0897 13.1529 28.3346 13.3166 28.541 13.5229C28.7473 13.7293 28.911 13.9743 29.0225 14.2439C29.1341 14.5135 29.1914 14.8025 29.1912 15.0943C29.191 15.3861 29.1332 15.675 29.0213 15.9445C28.9093 16.214 28.7453 16.4587 28.5387 16.6648Z" fill="#1358E3"/>
</g>
<defs>
<clipPath id="clip0_274_3963">
<rect width="20" height="20" fill="white" transform="translate(11 11)"/>
</clipPath>
</defs>
</svg>
