<svg width="20" height="20" viewBox="0 0 20 20" fill="none" xmlns="http://www.w3.org/2000/svg">
<path d="M2.5 5.625C2.5 4.7962 2.82924 4.00134 3.41529 3.41529C4.00134 2.82924 4.7962 2.5 5.625 2.5H14.375C15.2038 2.5 15.9987 2.82924 16.5847 3.41529C17.1708 4.00134 17.5 4.7962 17.5 5.625V10H13.125C12.2962 10 11.5013 10.3292 10.9153 10.9153C10.3292 11.5013 10 12.2962 10 13.125V17.5H5.625C4.7962 17.5 4.00134 17.1708 3.41529 16.5847C2.82924 15.9987 2.5 15.2038 2.5 14.375V5.625ZM11.25 17.3238C11.6921 17.1687 12.0937 16.9162 12.425 16.585L16.585 12.4237C16.9156 12.0926 17.1676 11.6915 17.3225 11.25H13.125C12.6277 11.25 12.1508 11.4475 11.7992 11.7992C11.4475 12.1508 11.25 12.6277 11.25 13.125V17.3238Z" fill="#1358E3"/>
</svg>
