<svg width="29" height="29" viewBox="0 0 29 29" fill="none" xmlns="http://www.w3.org/2000/svg">
<path d="M9.06234 4.22949C8.58163 4.22949 8.12062 4.42045 7.78071 4.76036C7.4408 5.10027 7.24984 5.56129 7.24984 6.04199C7.24984 6.5227 7.4408 6.98371 7.78071 7.32362C8.12062 7.66353 8.58163 7.85449 9.06234 7.85449C9.54304 7.85449 10.0041 7.66353 10.344 7.32362C10.6839 6.98371 10.8748 6.5227 10.8748 6.04199C10.8748 5.56129 10.6839 5.10027 10.344 4.76036C10.0041 4.42045 9.54304 4.22949 9.06234 4.22949ZM5.43734 6.04199C5.43734 5.08058 5.81926 4.15855 6.49907 3.47873C7.17889 2.79891 8.10093 2.41699 9.06234 2.41699C10.0237 2.41699 10.9458 2.79891 11.6256 3.47873C12.3054 4.15855 12.6873 5.08058 12.6873 6.04199C12.6873 7.0034 12.3054 7.92543 11.6256 8.60525C10.9458 9.28507 10.0237 9.66699 9.06234 9.66699C8.10093 9.66699 7.17889 9.28507 6.49907 8.60525C5.81926 7.92543 5.43734 7.0034 5.43734 6.04199ZM4.55284 10.8753C3.37109 10.8753 2.4165 11.8311 2.4165 13.0117V13.4467C2.4165 13.6968 2.4165 15.148 3.26234 16.5581C3.9245 17.6577 5.04705 18.6449 6.85713 19.0872C7.10504 18.4281 7.55398 17.8638 8.14038 17.474C6.20342 17.2674 5.2875 16.4071 4.81746 15.6253C4.23263 14.6514 4.229 13.6146 4.229 13.443V13.0117C4.229 12.8328 4.374 12.6878 4.55284 12.6878H9.70275C9.78257 12.0489 9.99009 11.4325 10.313 10.8753H4.55284ZM18.6867 10.8753C19.0021 11.4215 19.2148 12.0341 19.2957 12.6878H24.4468C24.6257 12.6878 24.7707 12.8328 24.7707 13.0117V13.443C24.7707 13.6146 24.767 14.6514 24.1822 15.6241C23.7122 16.4071 22.7963 17.2674 20.8593 17.474C21.4393 17.8607 21.8936 18.4238 22.1425 19.0872C23.9526 18.6449 25.0752 17.6577 25.7361 16.5581C26.5832 15.148 26.5832 13.698 26.5832 13.4454V13.0105C26.5832 11.8323 25.6274 10.8753 24.4468 10.8753H18.6867ZM18.1248 6.04199C18.1248 5.56129 18.3158 5.10027 18.6557 4.76036C18.9956 4.42045 19.4566 4.22949 19.9373 4.22949C20.418 4.22949 20.8791 4.42045 21.219 4.76036C21.5589 5.10027 21.7498 5.56129 21.7498 6.04199C21.7498 6.5227 21.5589 6.98371 21.219 7.32362C20.8791 7.66353 20.418 7.85449 19.9373 7.85449C19.4566 7.85449 18.9956 7.66353 18.6557 7.32362C18.3158 6.98371 18.1248 6.5227 18.1248 6.04199ZM19.9373 2.41699C18.9759 2.41699 18.0539 2.79891 17.3741 3.47873C16.6943 4.15855 16.3123 5.08058 16.3123 6.04199C16.3123 7.0034 16.6943 7.92543 17.3741 8.60525C18.0539 9.28507 18.9759 9.66699 19.9373 9.66699C20.8987 9.66699 21.8208 9.28507 22.5006 8.60525C23.1804 7.92543 23.5623 7.0034 23.5623 6.04199C23.5623 5.08058 23.1804 4.15855 22.5006 3.47873C21.8208 2.79891 20.8987 2.41699 19.9373 2.41699ZM14.4998 11.4795C14.2618 11.4795 14.0261 11.5264 13.8062 11.6175C13.5863 11.7085 13.3865 11.8421 13.2182 12.0104C13.0499 12.1787 12.9164 12.3785 12.8253 12.5984C12.7342 12.8183 12.6873 13.054 12.6873 13.292C12.6873 13.53 12.7342 13.7657 12.8253 13.9856C12.9164 14.2055 13.0499 14.4053 13.2182 14.5736C13.3865 14.7419 13.5863 14.8754 13.8062 14.9665C14.0261 15.0576 14.2618 15.1045 14.4998 15.1045C14.9805 15.1045 15.4416 14.9135 15.7815 14.5736C16.1214 14.2337 16.3123 13.7727 16.3123 13.292C16.3123 12.8113 16.1214 12.3503 15.7815 12.0104C15.4416 11.6705 14.9805 11.4795 14.4998 11.4795ZM10.8748 13.292C10.8748 12.3306 11.2568 11.4085 11.9366 10.7287C12.6164 10.0489 13.5384 9.66699 14.4998 9.66699C15.4612 9.66699 16.3833 10.0489 17.0631 10.7287C17.7429 11.4085 18.1248 12.3306 18.1248 13.292C18.1248 14.2534 17.7429 15.1754 17.0631 15.8553C16.3833 16.5351 15.4612 16.917 14.4998 16.917C13.5384 16.917 12.6164 16.5351 11.9366 15.8553C11.2568 15.1754 10.8748 14.2534 10.8748 13.292ZM7.854 20.2617C7.854 19.0799 8.80979 18.1253 9.99034 18.1253H19.0093C20.1899 18.1253 21.1457 19.0811 21.1457 20.2617V20.6967C21.1457 20.9468 21.1457 22.398 20.2998 23.8081C19.402 25.2992 17.6572 26.5837 14.4998 26.5837C11.3425 26.5837 9.59642 25.2992 8.69984 23.8081C7.854 22.398 7.854 20.948 7.854 20.6954V20.2617ZM9.99034 19.9378C9.94781 19.9378 9.9057 19.9462 9.86641 19.9625C9.82712 19.9788 9.79142 20.0026 9.76135 20.0327C9.73128 20.0627 9.70743 20.0984 9.69115 20.1377C9.67488 20.177 9.6665 20.2191 9.6665 20.2617V20.693C9.6665 20.8646 9.67013 21.9014 10.255 22.8741C10.7939 23.7719 11.9188 24.7712 14.4998 24.7712C17.0808 24.7712 18.2058 23.7719 18.7447 22.8741C19.3295 21.9014 19.3332 20.8646 19.3332 20.693V20.2617C19.3332 20.1758 19.2991 20.0934 19.2383 20.0327C19.1776 19.9719 19.0952 19.9378 19.0093 19.9378H9.99034Z" fill="black"/>
</svg>
