<svg width="23" height="28" viewBox="0 0 23 28" fill="none" xmlns="http://www.w3.org/2000/svg">
<path d="M21.2036 18.791H5.95369C4.77182 18.791 4.18088 18.791 3.69543 18.9206C3.04897 19.094 2.45954 19.4345 1.98639 19.9078C1.51324 20.3812 1.17304 20.9708 1 21.6173" stroke="#37373A" stroke-width="2"/>
<path d="M6.08331 7.35414H16.2499M6.08331 11.802H12.4375M20.6978 22.6041H6.08331M8.62497 26.4166C5.03107 26.4166 3.23285 26.4166 2.11706 25.2995C1 24.1837 1 22.3855 1 18.7916V8.62497C1 5.03107 1 3.23285 2.11706 2.11706C3.23285 1 5.03107 1 8.62497 1H13.7083C17.3022 1 19.1004 1 20.2162 2.11706C21.3333 3.23285 21.3333 5.03107 21.3333 8.62497M13.7083 26.4166C17.3022 26.4166 19.1004 26.4166 20.2162 25.2995C21.3333 24.1837 21.3333 22.3855 21.3333 18.7916V13.7083" stroke="#37373A" stroke-width="2" stroke-linecap="round"/>
</svg>
