<svg width="40" height="40" viewBox="0 0 40 40" fill="none" xmlns="http://www.w3.org/2000/svg">
<path fill-rule="evenodd" clip-rule="evenodd" d="M23.8333 7.28032C23.8333 10.1046 21.5345 12.3937 18.6983 12.3937C18.1816 12.3937 17.0029 12.2745 16.4298 11.7989L15.7137 12.5128C15.2923 12.9321 15.4061 13.0556 15.5946 13.2592C15.6715 13.3437 15.7625 13.4434 15.8329 13.5832C15.8329 13.5832 16.4298 14.4152 15.8329 15.2482C15.4754 15.7238 14.4722 16.389 13.3261 15.2482L13.0878 15.4866C13.0878 15.4866 13.8027 16.3186 13.2069 17.1506C12.8483 17.6262 11.8928 18.1017 11.0565 17.2697L10.2213 18.1017C9.64708 18.6727 8.94725 18.3401 8.66883 18.1017L7.95275 17.3878C7.28433 16.7227 7.67433 16.0012 7.95275 15.7238L14.1613 9.54016C14.1613 9.54016 13.5655 8.58899 13.5655 7.28032C13.5655 4.45607 15.8632 2.16699 18.6994 2.16699C21.5345 2.16699 23.8333 4.45607 23.8333 7.28032ZM20.4902 7.28032C20.4902 8.26616 19.6885 9.06457 18.6994 9.06457C18.4646 9.06514 18.2319 9.01944 18.0148 8.93007C17.7976 8.84069 17.6002 8.70941 17.4338 8.54371C17.2674 8.37801 17.1353 8.18115 17.045 7.96438C16.9547 7.7476 16.908 7.51515 16.9076 7.28032C16.9076 6.29449 17.7092 5.49608 18.6994 5.49608C18.9342 5.49565 19.1667 5.54146 19.3837 5.6309C19.6007 5.72033 19.798 5.85164 19.9643 6.01732C20.1306 6.18301 20.2626 6.37982 20.3529 6.59653C20.4431 6.81323 20.4897 7.04559 20.4902 7.28032Z" fill="#1358E3"/>
<path d="M14.2957 2.16808C13.556 2.79888 12.9622 3.58284 12.5554 4.46571C12.1486 5.34859 11.9384 6.30931 11.9394 7.28141C11.9394 8.01808 12.077 8.66374 12.2352 9.16424L6.80549 14.5722C6.37865 15.0013 6.09487 15.5519 5.99299 16.1485C5.86082 16.9577 6.09591 17.8331 6.80549 18.5394L7.52266 19.2533C7.55191 19.2826 7.58224 19.3107 7.61366 19.3378C8.03691 19.695 8.55046 19.9285 9.09782 20.0127C9.50735 20.075 9.9258 20.0394 10.3189 19.9089C10.7121 19.7784 11.0688 19.5567 11.3598 19.262C11.7769 19.3671 12.2048 19.3757 12.6165 19.2967C13.3795 19.1469 14.06 18.7196 14.5264 18.0974C14.662 17.9103 14.7747 17.7078 14.8622 17.494C14.968 17.4851 15.0732 17.4706 15.1775 17.4507C15.9693 17.2916 16.6736 16.8436 17.1535 16.194C17.3877 15.8728 17.5551 15.5079 17.6457 15.1208C17.7364 14.7338 17.7484 14.3324 17.6811 13.9407C18.8152 14.115 19.975 13.9977 21.0512 13.5997C22.1274 13.2016 23.0845 12.536 23.8322 11.6657L23.8333 13.0003C23.8333 18.1072 23.8333 20.6606 22.2462 22.2466C20.6613 23.8337 18.1068 23.8337 13 23.8337C7.89316 23.8337 5.33974 23.8337 3.75266 22.2466C2.16666 20.6617 2.16666 18.1072 2.16666 13.0003C2.16666 7.89349 2.16666 5.34008 3.75266 3.75299C5.34082 2.16699 7.89316 2.16699 13 2.16699L14.2957 2.16808Z" fill="#1358E3"/>
</svg>
