<svg width="128" height="156" viewBox="0 0 128 156" fill="none" xmlns="http://www.w3.org/2000/svg">
<path d="M118.134 71.8004C119.886 69.0937 120.648 64.2455 121.48 62.2541C121.358 48.4157 118.56 45.9221 118.773 45.8002C118.943 45.7026 119.087 40.9638 119.138 38.6066C116.047 24.3172 113.51 22.3501 112.628 23.1528C109.732 23.5917 102.377 32.0329 99.0613 36.1986C93.4156 33.687 83.8722 35.1521 79.8062 36.1986C76.886 30.6145 71.7756 27.0442 69.5855 25.957C62.0112 32.2768 47.4832 49.6651 49.9653 68.6609L50.5433 70.8555C46.5888 75.2143 38.7043 85.785 38.8016 93.198C38.8605 97.6826 40.0728 102.215 41.3783 105.726M118.134 71.8004C125.848 71.5566 127.209 77.6324 126.925 80.7008C127.436 85.7729 125.211 89.4387 124.035 90.6376C120.823 93.2956 114.727 92.497 112.081 91.7654C107.944 90.3511 106.281 84.9174 105.966 82.3773C104.312 74.7205 111.807 72.1357 115.761 71.8004M118.134 71.8004H115.761M42.5 105C43 106.5 53 103.5 41.3783 105.726M41.3783 105.726C38.2481 107.778 33.7156 113.273 40.6267 118.832C42.2491 120.042 45.6641 122.484 46.3455 122.582C50.3709 124.014 60.9587 126.672 71.1064 125.843C81.2541 125.014 90.6252 119.686 94.0422 117.126C96.202 115.51 100.826 110.999 100.826 108.835C100.826 104.306 101.312 97.3739 91.8521 106.091M91.8521 106.091C91.4059 108.692 88.8893 114.541 82.3918 117.126M91.8521 106.091C87.7151 106.091 89.1144 98.5322 90.3311 94.7525C96.2689 88.0467 105.358 89.967 109.16 91.7654C117.337 94.2039 119.3 101.154 119.259 104.324C119.795 110.176 116.197 114.017 114.332 115.205C108.637 119.692 98.6963 118.578 94.4377 117.461M82.3918 117.126C79.9279 117.634 64.5 118 63.5 117.126M82.3918 117.126C93.6772 90.6681 79.4412 90.9424 75.5171 91.2168C71.5931 91.4911 64.3839 95.5146 61.9199 98.6541M56.9312 78.7805C63.9479 74.1779 77.4883 69.5753 75.5171 87.9858M60.5511 73.0196C60.7133 68.6609 61.5306 59.4129 63.5017 57.2915C68.7844 58.3177 81.0473 61.4186 87.8368 65.6128C93.5454 61.8027 107.597 54.1519 118.134 54.03C120.071 54.5584 122.307 58.8521 115.761 71.8004M79.4716 50.799C78.3258 51.683 76.3202 53.963 77.464 56.0113C78.8936 58.5717 83.3956 59.0594 84.369 55.7674C84.947 53.8268 84.7766 50.1163 79.4716 50.799ZM99.2743 49.8236C97.9155 50.9909 95.8491 53.8139 98.4529 55.7674C100.349 56.4482 104.129 56.9562 104.08 53.5423C104.08 51.683 103.119 48.3362 99.2743 49.8236Z" stroke="#1358E3" stroke-width="5" stroke-linejoin="round"/>
<path d="M0.287642 180L3.9098 158.182H9.18324L6.28551 175.717H15.3622L14.6378 180H0.287642ZM23.2177 180L26.8399 158.182H42.0529L41.3285 162.464H31.3889L30.6645 166.939H39.8264L39.102 171.232H29.94L29.2156 175.717H39.1552L38.4308 180H23.2177ZM56.4789 158.182L52.8568 180H47.5833L51.2055 158.182H56.4789ZM64.2013 162.464L64.9257 158.182H83.3668L82.6423 162.464H76.0266L73.1288 180H67.93L70.8277 162.464H64.2013ZM109.525 169.432C109.127 171.783 108.346 173.768 107.181 175.387C106.023 176.999 104.614 178.221 102.952 179.052C101.297 179.883 99.5177 180.298 97.6143 180.298C95.6044 180.298 93.8643 179.851 92.3941 178.956C90.924 178.061 89.8551 176.758 89.1875 175.046C88.527 173.335 88.3991 171.257 88.8039 168.814C89.1875 166.463 89.9581 164.474 91.1157 162.848C92.2805 161.222 93.6974 159.989 95.3664 159.151C97.0426 158.306 98.8395 157.884 100.757 157.884C102.753 157.884 104.482 158.335 105.945 159.237C107.415 160.138 108.481 161.449 109.141 163.168C109.802 164.886 109.93 166.974 109.525 169.432ZM104.251 168.814C104.472 167.443 104.472 166.289 104.251 165.352C104.038 164.414 103.619 163.707 102.994 163.232C102.369 162.749 101.556 162.507 100.555 162.507C99.4467 162.507 98.4453 162.781 97.5504 163.327C96.6626 163.867 95.9204 164.656 95.3238 165.692C94.7272 166.722 94.3118 167.969 94.0774 169.432C93.8359 170.817 93.8288 171.971 94.0561 172.894C94.2904 173.817 94.7272 174.513 95.3664 174.982C96.0056 175.444 96.8189 175.675 97.8061 175.675C98.9069 175.675 99.8977 175.408 100.778 174.876C101.659 174.343 102.394 173.565 102.984 172.543C103.58 171.52 104.003 170.277 104.251 168.814ZM133.518 158.182H138.78L136.447 172.255C136.177 173.881 135.556 175.298 134.583 176.506C133.617 177.706 132.385 178.636 130.886 179.297C129.388 179.95 127.719 180.277 125.879 180.277C124.032 180.277 122.474 179.95 121.202 179.297C119.931 178.636 119.011 177.706 118.443 176.506C117.875 175.298 117.722 173.881 117.985 172.255L120.318 158.182H125.591L123.322 171.797C123.202 172.55 123.258 173.221 123.493 173.81C123.734 174.393 124.125 174.854 124.665 175.195C125.204 175.529 125.865 175.696 126.646 175.696C127.434 175.696 128.155 175.529 128.809 175.195C129.462 174.854 130.002 174.393 130.428 173.81C130.854 173.221 131.128 172.55 131.248 171.797L133.518 158.182ZM144.313 180L147.936 158.182H156.948C158.582 158.182 159.946 158.477 161.039 159.066C162.133 159.648 162.911 160.487 163.372 161.58C163.834 162.667 163.941 163.956 163.692 165.447C163.451 166.953 162.911 168.235 162.073 169.293C161.242 170.344 160.169 171.147 158.855 171.701C157.549 172.255 156.064 172.532 154.402 172.532H148.703L149.406 168.377H154.125C154.914 168.377 155.595 168.274 156.171 168.068C156.746 167.855 157.204 167.536 157.545 167.109C157.893 166.676 158.124 166.122 158.237 165.447C158.344 164.773 158.294 164.215 158.088 163.775C157.889 163.327 157.538 162.994 157.034 162.773C156.536 162.546 155.897 162.433 155.116 162.433H152.517L149.587 180H144.313ZM158.248 170.028L162.03 180H156.277L152.612 170.028H158.248Z" fill="#1358E3"/>
<path d="M24.5767 25.2199C24.9183 24.3986 26.0817 24.3986 26.4233 25.2199L26.9847 26.5697C27.1287 26.9159 27.4543 27.1525 27.8281 27.1824L29.2853 27.2993C30.1719 27.3703 30.5314 28.4768 29.8559 29.0555L28.7457 30.0065C28.4609 30.2505 28.3366 30.6332 28.4236 30.998L28.7627 32.4199C28.9691 33.2852 28.0279 33.969 27.2688 33.5054L26.0213 32.7434C25.7012 32.5479 25.2988 32.5479 24.9787 32.7434L23.7312 33.5054C22.9721 33.969 22.0309 33.2852 22.2373 32.4199L22.5764 30.998C22.6634 30.6332 22.5391 30.2505 22.2543 30.0065L21.1441 29.0555C20.4686 28.4768 20.8281 27.3703 21.7147 27.2993L23.1719 27.1824C23.5457 27.1525 23.8713 26.9159 24.0153 26.5697L24.5767 25.2199Z" fill="#1358E3"/>
<path d="M137.577 36.2199C137.918 35.3986 139.082 35.3986 139.423 36.2199L139.985 37.5697C140.129 37.9159 140.454 38.1525 140.828 38.1824L142.285 38.2993C143.172 38.3703 143.531 39.4768 142.856 40.0555L141.746 41.0065C141.461 41.2505 141.337 41.6332 141.424 41.998L141.763 43.4199C141.969 44.2852 141.028 44.969 140.269 44.5054L139.021 43.7434C138.701 43.5479 138.299 43.5479 137.979 43.7434L136.731 44.5054C135.972 44.969 135.031 44.2852 135.237 43.4199L135.576 41.998C135.663 41.6332 135.539 41.2505 135.254 41.0065L134.144 40.0555C133.469 39.4768 133.828 38.3703 134.715 38.2993L136.172 38.1824C136.546 38.1525 136.871 37.9159 137.015 37.5697L137.577 36.2199Z" fill="#1358E3"/>
<path d="M155.577 89.2199C155.918 88.3986 157.082 88.3986 157.423 89.2199L157.985 90.5697C158.129 90.9159 158.454 91.1525 158.828 91.1824L160.285 91.2993C161.172 91.3703 161.531 92.4768 160.856 93.0555L159.746 94.0065C159.461 94.2505 159.337 94.6332 159.424 94.998L159.763 96.4199C159.969 97.2852 159.028 97.969 158.269 97.5054L157.021 96.7434C156.701 96.5479 156.299 96.5479 155.979 96.7434L154.731 97.5054C153.972 97.969 153.031 97.2852 153.237 96.4199L153.576 94.998C153.663 94.6332 153.539 94.2505 153.254 94.0065L152.144 93.0555C151.469 92.4768 151.828 91.3703 152.715 91.2993L154.172 91.1824C154.546 91.1525 154.871 90.9159 155.015 90.5697L155.577 89.2199Z" fill="#1358E3"/>
<path d="M155.577 89.2199C155.918 88.3986 157.082 88.3986 157.423 89.2199L157.985 90.5697C158.129 90.9159 158.454 91.1525 158.828 91.1824L160.285 91.2993C161.172 91.3703 161.531 92.4768 160.856 93.0555L159.746 94.0065C159.461 94.2505 159.337 94.6332 159.424 94.998L159.763 96.4199C159.969 97.2852 159.028 97.969 158.269 97.5054L157.021 96.7434C156.701 96.5479 156.299 96.5479 155.979 96.7434L154.731 97.5054C153.972 97.969 153.031 97.2852 153.237 96.4199L153.576 94.998C153.663 94.6332 153.539 94.2505 153.254 94.0065L152.144 93.0555C151.469 92.4768 151.828 91.3703 152.715 91.2993L154.172 91.1824C154.546 91.1525 154.871 90.9159 155.015 90.5697L155.577 89.2199Z" fill="#1358E3"/>
<path d="M98.4115 166.408C98.6292 165.864 99.3708 165.864 99.5885 166.408L99.9463 167.303C100.038 167.533 100.246 167.689 100.484 167.709L101.413 167.787C101.978 167.834 102.207 168.567 101.776 168.951L101.069 169.581C100.887 169.743 100.808 169.997 100.863 170.239L101.08 171.181C101.211 171.755 100.611 172.208 100.127 171.901L99.3322 171.396C99.1283 171.266 98.8717 171.266 98.6678 171.396L97.8726 171.901C97.3888 172.208 96.7888 171.755 96.9204 171.181L97.1366 170.239C97.192 169.997 97.1128 169.743 96.9312 169.581L96.2236 168.951C95.7931 168.567 96.0222 167.834 96.5873 167.787L97.5161 167.709C97.7544 167.689 97.9619 167.533 98.0537 167.303L98.4115 166.408Z" fill="#1358E3"/>
<path d="M85.5767 2.21993C85.9183 1.39864 87.0817 1.39864 87.4233 2.21993L87.9847 3.56966C88.1287 3.9159 88.4543 4.15247 88.8281 4.18244L90.2853 4.29925C91.1719 4.37034 91.5314 5.47685 90.8559 6.05551L89.7457 7.00652C89.4609 7.25047 89.3366 7.63325 89.4236 7.998L89.7627 9.41994C89.9691 10.2852 89.0279 10.969 88.2688 10.5054L87.0213 9.74338C86.7012 9.54792 86.2988 9.54792 85.9787 9.74338L84.7312 10.5054C83.9721 10.969 83.0309 10.2852 83.2373 9.41994L83.5764 7.998C83.6634 7.63325 83.5391 7.25047 83.2543 7.00652L82.1441 6.05551C81.4686 5.47685 81.8281 4.37034 82.7147 4.29925L84.1719 4.18244C84.5457 4.15247 84.8713 3.9159 85.0153 3.56966L85.5767 2.21993Z" fill="#1358E3"/>
<path d="M15.5767 82.2199C15.9183 81.3986 17.0817 81.3986 17.4233 82.2199L17.9847 83.5697C18.1287 83.9159 18.4543 84.1525 18.8281 84.1824L20.2853 84.2993C21.1719 84.3703 21.5314 85.4768 20.8559 86.0555L19.7457 87.0065C19.4609 87.2505 19.3366 87.6332 19.4236 87.998L19.7627 89.4199C19.9691 90.2852 19.0279 90.969 18.2688 90.5054L17.0213 89.7434C16.7012 89.5479 16.2988 89.5479 15.9787 89.7434L14.7312 90.5054C13.9721 90.969 13.0309 90.2852 13.2373 89.4199L13.5764 87.998C13.6634 87.6332 13.5391 87.2505 13.2543 87.0065L12.1441 86.0555C11.4686 85.4768 11.8281 84.3703 12.7147 84.2993L14.1719 84.1824C14.5457 84.1525 14.8713 83.9159 15.0153 83.5697L15.5767 82.2199Z" fill="#1358E3"/>
</svg>
