<svg xmlns="http://www.w3.org/2000/svg" width="90" height="104" viewBox="0 0 90 104" fill="none">
<path d="M84.1339 51.8004C85.8861 49.0937 86.6481 44.2455 87.4796 42.2541C87.3579 28.4157 84.5598 25.9221 84.7727 25.8002C84.9431 25.7026 85.0871 20.9638 85.1377 18.6066C82.0472 4.31717 79.5103 2.35014 78.6281 3.1528C75.7322 3.59173 68.377 12.0329 65.0613 16.1986C59.4156 13.687 49.8722 15.1521 45.8062 16.1986C42.886 10.6145 37.7756 7.0442 35.5855 5.95705C28.0112 12.2768 13.4832 29.6651 15.9653 48.6609L16.5433 50.8555C12.5888 55.2143 4.70427 65.785 4.80161 73.198C4.8605 77.6826 6.07277 82.2149 7.3783 85.7257M84.1339 51.8004C91.8481 51.5566 93.2089 57.6324 92.925 60.7008C93.436 65.7729 91.2114 69.4387 90.0352 70.6376C86.823 73.2956 80.727 72.497 78.0806 71.7654C73.9436 70.3511 72.2807 64.9174 71.9664 62.3773C70.3116 54.7205 77.8068 52.1357 81.7613 51.8004M84.1339 51.8004H81.7613M8.5 85C9 86.5 19 83.5 7.3783 85.7257M7.3783 85.7257C4.24813 87.7781 -0.284417 93.2728 6.62674 98.8325C8.24908 100.042 11.6641 102.484 12.3455 102.582C16.3709 104.014 26.9587 106.672 37.1064 105.843C47.2541 105.014 56.6252 99.686 60.0422 97.1256C62.202 95.5101 66.8256 90.9989 66.8256 88.8347C66.8256 84.3059 67.3123 77.3739 57.8521 86.0915M57.8521 86.0915C57.4059 88.6925 54.8893 94.5408 48.3918 97.1256M57.8521 86.0915C53.7151 86.0915 55.1144 78.5322 56.3311 74.7525C62.2689 68.0467 71.358 69.967 75.1604 71.7654C83.337 74.2039 85.3 81.1535 85.2594 84.3236C85.7948 90.1759 82.1973 94.0165 80.3316 95.2053C74.6372 99.6921 64.6963 98.5785 60.4377 97.4608M48.3918 97.1256C45.9279 97.6336 30.5 98 29.5 97.1256M48.3918 97.1256C59.6772 70.6681 45.4412 70.9424 41.5171 71.2168C37.5931 71.4911 30.3839 75.5146 27.9199 78.6541M22.9312 58.7805C29.9479 54.1779 43.4883 49.5753 41.5171 67.9858M26.5511 53.0196C26.7133 48.6609 27.5306 39.4129 29.5017 37.2915C34.7844 38.3177 47.0473 41.4186 53.8368 45.6128C59.5454 41.8027 73.5968 34.1519 84.1339 34.03C86.0706 34.5584 88.3074 38.8521 81.7613 51.8004M45.4716 30.799C44.3258 31.683 42.3202 33.963 43.464 36.0113C44.8936 38.5717 49.3956 39.0594 50.369 35.7674C50.947 33.8268 50.7766 30.1163 45.4716 30.799ZM65.2743 29.8236C63.9155 30.9909 61.8491 33.8139 64.4529 35.7674C66.3491 36.4482 70.1291 36.9562 70.0804 33.5423C70.0804 31.683 69.1192 28.3362 65.2743 29.8236Z" stroke="#1358E3" stroke-width="5" stroke-linejoin="round"/>
</svg>