<svg width="18" height="14" viewBox="0 0 18 14" fill="none" xmlns="http://www.w3.org/2000/svg">
<mask id="mask0_230_2159" style="mask-type:luminance" maskUnits="userSpaceOnUse" x="0" y="0" width="18" height="14">
<path fill-rule="evenodd" clip-rule="evenodd" d="M1.125 7.875C0.503681 7.25368 0.503679 6.24632 1.125 5.625C1.74632 5.00368 2.75368 5.00368 3.375 5.625L5.33579 7.58579C6.11684 8.36684 7.38316 8.36683 8.16421 7.58579L14.625 1.125C15.2463 0.503679 16.2537 0.50368 16.875 1.125C17.4963 1.74632 17.4963 2.75368 16.875 3.375L8.16421 12.0858C7.38316 12.8668 6.11683 12.8668 5.33579 12.0858L1.125 7.875Z" fill="white" stroke="white" stroke-linecap="round" stroke-linejoin="round"/>
</mask>
<g mask="url(#mask0_230_2159)">
<path d="M-1.80078 -2.05078C-1.80078 -3.15535 -0.905351 -4.05078 0.199219 -4.05078H17.7992C18.9038 -4.05078 19.7992 -3.15535 19.7992 -2.05078V15.5492C19.7992 16.6538 18.9038 17.5492 17.7992 17.5492H0.199221C-0.905348 17.5492 -1.80078 16.6538 -1.80078 15.5492V-2.05078Z" fill="#1358E3"/>
</g>
</svg>
