<svg width="21" height="21" viewBox="0 0 21 21" fill="none" xmlns="http://www.w3.org/2000/svg">
<g clip-path="url(#clip0_230_2144)">
<path fill-rule="evenodd" clip-rule="evenodd" d="M13.125 2.625C13.5891 2.625 14.0342 2.80937 14.3624 3.13756C14.6906 3.46575 14.875 3.91087 14.875 4.375V7.875H16.625C17.0891 7.875 17.5342 8.05937 17.8624 8.38756C18.1906 8.71575 18.375 9.16087 18.375 9.625V16.625C18.6071 16.625 18.8296 16.7172 18.9937 16.8813C19.1578 17.0454 19.25 17.2679 19.25 17.5C19.25 17.7321 19.1578 17.9546 18.9937 18.1187C18.8296 18.2828 18.6071 18.375 18.375 18.375H2.625C2.39294 18.375 2.17038 18.2828 2.00628 18.1187C1.84219 17.9546 1.75 17.7321 1.75 17.5C1.75 17.2679 1.84219 17.0454 2.00628 16.8813C2.17038 16.7172 2.39294 16.625 2.625 16.625V7.875C2.625 7.41087 2.80937 6.96575 3.13756 6.63756C3.46575 6.30937 3.91087 6.125 4.375 6.125H6.125V4.375C6.125 3.91087 6.30937 3.46575 6.63756 3.13756C6.96575 2.80937 7.41087 2.625 7.875 2.625H13.125ZM6.125 7.875H4.375V16.625H6.125V7.875ZM16.625 9.625H14.875V16.625H16.625V9.625ZM11.375 13.125H9.625V14.875H11.375V13.125ZM11.375 9.625H9.625V11.375H11.375V9.625ZM11.375 6.125H9.625V7.875H11.375V6.125Z" fill="#1358E3"/>
</g>
<defs>
<clipPath id="clip0_230_2144">
<rect width="21" height="21" fill="white"/>
</clipPath>
</defs>
</svg>
