<svg width="19" height="19" viewBox="0 0 19 19" fill="none" xmlns="http://www.w3.org/2000/svg">
<g clip-path="url(#clip0_230_2132)">
<path d="M9.49967 1.58301C13.872 1.58301 17.4163 5.1273 17.4163 9.49967C17.4163 13.872 13.872 17.4163 9.49967 17.4163C5.1273 17.4163 1.58301 13.872 1.58301 9.49967C1.58301 5.1273 5.1273 1.58301 9.49967 1.58301ZM11.083 10.608L9.84484 11.5984C9.80138 11.6332 9.76575 11.6767 9.74026 11.7262C9.71478 11.7757 9.70003 11.83 9.69697 11.8856C9.6939 11.9412 9.7026 11.9968 9.72249 12.0488C9.74238 12.1008 9.77301 12.148 9.81238 12.1874L10.7933 13.1683C10.9832 13.3584 11.1216 13.5938 11.1954 13.8523L11.334 14.3375C11.3914 14.5412 11.4935 14.7294 11.6327 14.8887C11.772 15.0479 11.945 15.1742 12.1391 15.2583C12.8964 14.9103 13.5778 14.4167 14.1444 13.8055L13.9591 12.3196C13.9267 12.0611 13.831 11.8145 13.6805 11.6019C13.5299 11.3892 13.3293 11.217 13.0962 11.1004L11.9325 10.5178C11.7971 10.45 11.6451 10.4225 11.4945 10.4385C11.344 10.4545 11.2011 10.5133 11.083 10.608ZM9.49967 3.16634C8.53071 3.16552 7.57452 3.38739 6.70494 3.81484C5.83536 4.24229 5.07564 4.86387 4.48447 5.63159L4.35384 5.80655V7.14051C4.35374 7.62382 4.5011 8.09566 4.77623 8.49302C5.05137 8.89038 5.44119 9.19433 5.89363 9.3643L6.03455 9.4118L7.0558 9.72451C8.14276 10.057 9.20122 9.17272 9.09592 8.06517L9.08088 7.95038L8.94234 7.11992C8.91172 6.93597 8.94703 6.7471 9.04204 6.58663C9.13705 6.42616 9.28566 6.30438 9.46167 6.24276L9.54717 6.21901L10.0317 6.10817C10.3066 6.04534 10.5661 5.92808 10.7949 5.76331C11.0238 5.59854 11.2173 5.3896 11.3641 5.14882C11.5108 4.90804 11.6079 4.6403 11.6495 4.36141C11.6911 4.08251 11.6764 3.7981 11.6063 3.52497C10.9295 3.28677 10.2171 3.1655 9.49967 3.16634Z" fill="#1358E3"/>
</g>
<defs>
<clipPath id="clip0_230_2132">
<rect width="19" height="19" fill="white"/>
</clipPath>
</defs>
</svg>
