<svg width="39" height="39" viewBox="0 0 39 39" fill="none" xmlns="http://www.w3.org/2000/svg">
<g id="ant-design:user-outlined">
<path id="Vector" fill-rule="evenodd" clip-rule="evenodd" d="M11.5227 12.8525C11.5227 11.8631 11.7175 10.8834 12.0962 9.96928C12.4748 9.0552 13.0297 8.22465 13.7293 7.52504C14.4289 6.82544 15.2595 6.27048 16.1736 5.89186C17.0877 5.51323 18.0674 5.31836 19.0568 5.31836C20.0461 5.31836 21.0258 5.51323 21.9399 5.89186C22.854 6.27048 23.6846 6.82544 24.3842 7.52504C25.0838 8.22465 25.6387 9.0552 26.0173 9.96928C26.396 10.8834 26.5908 11.8631 26.5908 12.8525C26.5908 14.8506 25.7971 16.7669 24.3842 18.1799C22.9712 19.5928 21.0549 20.3865 19.0568 20.3865C17.0586 20.3865 15.1423 19.5928 13.7293 18.1799C12.3164 16.7669 11.5227 14.8506 11.5227 12.8525ZM19.0568 7.97745C17.7638 7.97745 16.5238 8.49106 15.6096 9.4053C14.6954 10.3195 14.1818 11.5595 14.1818 12.8525C14.1818 14.1454 14.6954 15.3854 15.6096 16.2996C16.5238 17.2138 17.7638 17.7275 19.0568 17.7275C20.3497 17.7275 21.5897 17.2138 22.5039 16.2996C23.4181 15.3854 23.9318 14.1454 23.9318 12.8525C23.9318 11.5595 23.4181 10.3195 22.5039 9.4053C21.5897 8.49106 20.3497 7.97745 19.0568 7.97745ZM11.9658 25.7047C10.908 25.7047 9.89347 26.125 9.14545 26.873C8.39744 27.621 7.97721 28.6355 7.97721 29.6934V31.7994C7.97721 31.8313 8.00025 31.8596 8.03216 31.865C15.334 33.0562 22.7813 33.0562 30.0813 31.865C30.0968 31.8624 30.1109 31.8544 30.121 31.8424C30.1311 31.8303 30.1365 31.8151 30.1363 31.7994V29.6934C30.1363 28.6355 29.7161 27.621 28.9681 26.873C28.22 26.125 27.2055 25.7047 26.1477 25.7047H25.5449C25.4974 25.7044 25.4501 25.7115 25.4049 25.726L23.8715 26.2277C20.7429 27.2491 17.3706 27.2491 14.242 26.2277L12.7068 25.726C12.6627 25.7119 12.6167 25.7047 12.5703 25.7047H11.9658ZM5.31812 29.6934C5.31812 27.9303 6.0185 26.2394 7.26519 24.9927C8.51188 23.746 10.2028 23.0456 11.9658 23.0456H12.5686C12.8965 23.0456 13.2227 23.0988 13.5329 23.1981L15.0681 23.6998C17.6599 24.5458 20.4536 24.5458 23.0454 23.6998L24.5806 23.1981C24.8908 23.097 25.217 23.0456 25.5432 23.0456H26.1477C27.9107 23.0456 29.6016 23.746 30.8483 24.9927C32.095 26.2394 32.7954 27.9303 32.7954 29.6934V31.7994C32.7954 33.136 31.8275 34.2741 30.5086 34.4886C22.9242 35.7267 15.1893 35.7267 7.60493 34.4886C6.96662 34.3847 6.38608 34.0571 5.96713 33.5644C5.54817 33.0717 5.31813 32.4461 5.31812 31.7994V29.6934Z" fill="#145CEC"/>
</g>
</svg>
