<svg width="39" height="39" viewBox="0 0 39 39" fill="none" xmlns="http://www.w3.org/2000/svg">
<g id="ant-design:user-outlined">
<path id="Vector" fill-rule="evenodd" clip-rule="evenodd" d="M11.5228 12.8525C11.5228 11.8631 11.7177 10.8834 12.0963 9.96928C12.4749 9.0552 13.0299 8.22465 13.7295 7.52504C14.4291 6.82544 15.2596 6.27048 16.1737 5.89186C17.0878 5.51323 18.0675 5.31836 19.0569 5.31836C20.0463 5.31836 21.026 5.51323 21.94 5.89186C22.8541 6.27048 23.6847 6.82544 24.3843 7.52504C25.0839 8.22465 25.6388 9.0552 26.0175 9.96928C26.3961 10.8834 26.591 11.8631 26.591 12.8525C26.591 14.8506 25.7972 16.7669 24.3843 18.1799C22.9714 19.5928 21.055 20.3865 19.0569 20.3865C17.0587 20.3865 15.1424 19.5928 13.7295 18.1799C12.3165 16.7669 11.5228 14.8506 11.5228 12.8525ZM19.0569 7.97745C17.7639 7.97745 16.524 8.49106 15.6097 9.4053C14.6955 10.3195 14.1819 11.5595 14.1819 12.8525C14.1819 14.1454 14.6955 15.3854 15.6097 16.2996C16.524 17.2138 17.7639 17.7275 19.0569 17.7275C20.3498 17.7275 21.5898 17.2138 22.504 16.2996C23.4183 15.3854 23.9319 14.1454 23.9319 12.8525C23.9319 11.5595 23.4183 10.3195 22.504 9.4053C21.5898 8.49106 20.3498 7.97745 19.0569 7.97745ZM11.966 25.7047C10.9081 25.7047 9.89359 26.125 9.14557 26.873C8.39756 27.621 7.97733 28.6355 7.97733 29.6934V31.7994C7.97733 31.8313 8.00037 31.8596 8.03228 31.865C15.3341 33.0562 22.7814 33.0562 30.0815 31.865C30.097 31.8624 30.111 31.8544 30.1211 31.8424C30.1312 31.8303 30.1366 31.8151 30.1364 31.7994V29.6934C30.1364 28.6355 29.7162 27.621 28.9682 26.873C28.2202 26.125 27.2056 25.7047 26.1478 25.7047H25.5451C25.4975 25.7044 25.4503 25.7115 25.405 25.726L23.8716 26.2277C20.743 27.2491 17.3707 27.2491 14.2421 26.2277L12.707 25.726C12.6628 25.7119 12.6168 25.7047 12.5705 25.7047H11.966ZM5.31824 29.6934C5.31824 27.9303 6.01862 26.2394 7.26531 24.9927C8.512 23.746 10.2029 23.0456 11.966 23.0456H12.5687C12.8966 23.0456 13.2228 23.0988 13.5331 23.1981L15.0682 23.6998C17.66 24.5458 20.4537 24.5458 23.0455 23.6998L24.5807 23.1981C24.8909 23.097 25.2171 23.0456 25.5433 23.0456H26.1478C27.9109 23.0456 29.6017 23.746 30.8484 24.9927C32.0951 26.2394 32.7955 27.9303 32.7955 29.6934V31.7994C32.7955 33.136 31.8276 34.2741 30.5087 34.4886C22.9243 35.7267 15.1894 35.7267 7.60506 34.4886C6.96674 34.3847 6.3862 34.0571 5.96725 33.5644C5.5483 33.0717 5.31825 32.4461 5.31824 31.7994V29.6934Z" fill="#145CEC"/>
</g>
</svg>
