<svg width="19" height="19" viewBox="0 0 19 19" fill="none" xmlns="http://www.w3.org/2000/svg">
<path d="M15.0413 3.16634H13.458V2.37467C13.458 2.16471 13.3746 1.96335 13.2261 1.81488C13.0777 1.66642 12.8763 1.58301 12.6663 1.58301C12.4564 1.58301 12.255 1.66642 12.1065 1.81488C11.9581 1.96335 11.8747 2.16471 11.8747 2.37467V3.16634H7.12467V2.37467C7.12467 2.16471 7.04127 1.96335 6.8928 1.81488C6.74433 1.66642 6.54297 1.58301 6.33301 1.58301C6.12304 1.58301 5.92168 1.66642 5.77321 1.81488C5.62475 1.96335 5.54134 2.16471 5.54134 2.37467V3.16634H3.95801C3.32812 3.16634 2.72403 3.41656 2.27863 3.86196C1.83323 4.30736 1.58301 4.91145 1.58301 5.54134V15.0413C1.58301 15.6712 1.83323 16.2753 2.27863 16.7207C2.72403 17.1661 3.32812 17.4163 3.95801 17.4163H15.0413C15.6712 17.4163 16.2753 17.1661 16.7207 16.7207C17.1661 16.2753 17.4163 15.6712 17.4163 15.0413V5.54134C17.4163 4.91145 17.1661 4.30736 16.7207 3.86196C16.2753 3.41656 15.6712 3.16634 15.0413 3.16634ZM15.833 15.0413C15.833 15.2513 15.7496 15.4527 15.6011 15.6011C15.4527 15.7496 15.2513 15.833 15.0413 15.833H3.95801C3.74804 15.833 3.54668 15.7496 3.39822 15.6011C3.24975 15.4527 3.16634 15.2513 3.16634 15.0413V9.49967H15.833V15.0413ZM15.833 7.91634H3.16634V5.54134C3.16634 5.33138 3.24975 5.13001 3.39822 4.98155C3.54668 4.83308 3.74804 4.74967 3.95801 4.74967H5.54134V5.54134C5.54134 5.7513 5.62475 5.95267 5.77321 6.10113C5.92168 6.2496 6.12304 6.33301 6.33301 6.33301C6.54297 6.33301 6.74433 6.2496 6.8928 6.10113C7.04127 5.95267 7.12467 5.7513 7.12467 5.54134V4.74967H11.8747V5.54134C11.8747 5.7513 11.9581 5.95267 12.1065 6.10113C12.255 6.2496 12.4564 6.33301 12.6663 6.33301C12.8763 6.33301 13.0777 6.2496 13.2261 6.10113C13.3746 5.95267 13.458 5.7513 13.458 5.54134V4.74967H15.0413C15.2513 4.74967 15.4527 4.83308 15.6011 4.98155C15.7496 5.13001 15.833 5.33138 15.833 5.54134V7.91634Z" fill="#1358E3"/>
</svg>
