<svg width="22" height="29" viewBox="0 0 22 29" fill="none" xmlns="http://www.w3.org/2000/svg">
<path d="M2 6.91928V21.5003C2 23.5926 2 24.6395 2.306 25.279C2.58283 25.8576 3.03008 26.3325 3.58455 26.6365C4.13903 26.9404 4.77269 27.0582 5.396 26.973C6.086 26.8808 6.935 26.2997 8.633 25.1391L8.6375 25.136C9.311 24.6748 9.647 24.4458 9.9995 24.3182C10.6464 24.0838 11.3521 24.0838 11.999 24.3182C12.3515 24.4458 12.689 24.6764 13.3655 25.1391C15.065 26.2997 15.9155 26.8793 16.6055 26.973C17.2286 27.0578 17.8619 26.9399 18.4161 26.636C18.9702 26.332 19.4173 25.8573 19.694 25.279C20 24.6395 20 23.5926 20 21.5003V6.91467C20 5.196 20 4.33512 19.673 3.67871C19.3849 3.10005 18.9255 2.62971 18.3605 2.33513C17.72 2 16.88 2 15.2 2H6.8C5.12 2 4.28 2 3.638 2.33513C3.07348 2.6298 2.61453 3.10015 2.327 3.67871C2 4.33666 2 5.19753 2 6.91928Z" stroke="#37373A" stroke-width="3" stroke-linecap="round" stroke-linejoin="round"/>
</svg>
