<svg width="28" height="17" viewBox="0 0 28 17" fill="none" xmlns="http://www.w3.org/2000/svg">
<path d="M7.46667 0C4.38667 0 1.86667 2.55 1.86667 5.66667C1.86667 7.54044 2.77853 9.20833 4.17107 10.2416C1.70987 11.4769 0 14.0382 0 17H1.86667C1.86667 13.8607 4.36427 11.3333 7.46667 11.3333C10.5691 11.3333 13.0667 13.8607 13.0667 17H14.9333C14.9333 13.8607 17.4309 11.3333 20.5333 11.3333C23.6357 11.3333 26.1333 13.8607 26.1333 17H28C28 14.0373 26.2901 11.4769 23.8289 10.2416C24.5415 9.71612 25.1216 9.02799 25.522 8.23308C25.9224 7.43816 26.1319 6.55888 26.1333 5.66667C26.1333 2.55 23.6133 0 20.5333 0C17.4533 0 14.9333 2.55 14.9333 5.66667C14.9333 7.54044 15.8452 9.20833 17.2377 10.2416C15.8741 10.92 14.7453 12.0003 14 13.3403C13.2547 12.0003 12.1259 10.92 10.7623 10.2416C11.4749 9.71612 12.0549 9.02799 12.4553 8.23308C12.8557 7.43816 13.0652 6.55888 13.0667 5.66667C13.0667 2.55 10.5467 0 7.46667 0ZM7.46667 1.88889C9.54147 1.88889 11.2 3.56717 11.2 5.66667C11.2 7.76617 9.54147 9.44444 7.46667 9.44444C5.39187 9.44444 3.73333 7.76617 3.73333 5.66667C3.73333 3.56717 5.39187 1.88889 7.46667 1.88889ZM20.5333 1.88889C22.6081 1.88889 24.2667 3.56717 24.2667 5.66667C24.2667 7.76617 22.6081 9.44444 20.5333 9.44444C18.4585 9.44444 16.8 7.76617 16.8 5.66667C16.8 3.56717 18.4585 1.88889 20.5333 1.88889Z" fill="#37373A"/>
</svg>
