<svg width="22" height="24" viewBox="0 0 22 24" fill="none" xmlns="http://www.w3.org/2000/svg">
<path d="M15.4 14.25C13.9906 14.25 13.3129 15 11 15C8.68705 15 8.01429 14.25 6.6 14.25C2.95625 14.25 0 17.0719 0 20.55V21.75C0 22.9922 1.0558 24 2.35714 24H19.6429C20.9442 24 22 22.9922 22 21.75V20.55C22 17.0719 19.0438 14.25 15.4 14.25ZM19.6429 21.75H2.35714V20.55C2.35714 18.3188 4.2625 16.5 6.6 16.5C7.31696 16.5 8.4808 17.25 11 17.25C13.5388 17.25 14.6781 16.5 15.4 16.5C17.7375 16.5 19.6429 18.3188 19.6429 20.55V21.75ZM11 13.5C14.904 13.5 18.0714 10.4766 18.0714 6.75C18.0714 3.02344 14.904 0 11 0C7.09598 0 3.92857 3.02344 3.92857 6.75C3.92857 10.4766 7.09598 13.5 11 13.5ZM11 2.25C13.5978 2.25 15.7143 4.27031 15.7143 6.75C15.7143 9.22969 13.5978 11.25 11 11.25C8.40223 11.25 6.28571 9.22969 6.28571 6.75C6.28571 4.27031 8.40223 2.25 11 2.25Z" fill="#37373A"/>
</svg>
