<svg width="36" height="36" viewBox="0 0 34 34" fill="none" xmlns="http://www.w3.org/2000/svg">
<path d="M15.6674 24.6C14.4007 24.6 13.234 24.2833 12.1674 23.65C11.1007 22.9833 10.234 22.1 9.56738 21C8.93405 19.8667 8.61738 18.6167 8.61738 17.25C8.61738 15.85 8.93405 14.6 9.56738 13.5C10.234 12.3667 11.1007 11.4667 12.1674 10.8C13.234 10.1333 14.4007 9.8 15.6674 9.8C17.2674 9.8 18.5507 10.1833 19.5174 10.95C20.5174 11.6833 21.0174 12.8333 21.0174 14.4V20C21.0174 21.5333 20.5341 22.6833 19.5674 23.45C18.6007 24.2167 17.3007 24.6 15.6674 24.6ZM15.9674 20.85C17.0007 20.85 17.8174 20.5167 18.4174 19.85C19.0507 19.15 19.3674 18.2667 19.3674 17.2C19.3674 16.1 19.0507 15.2167 18.4174 14.55C17.8174 13.8833 17.0007 13.55 15.9674 13.55C14.9674 13.55 14.1507 13.9 13.5174 14.6C12.8841 15.2667 12.5674 16.1333 12.5674 17.2C12.5674 18.2667 12.8841 19.15 13.5174 19.85C14.1507 20.5167 14.9674 20.85 15.9674 20.85ZM19.7674 24.3V20.5L20.3174 17L19.7674 13.6V10.1H23.6174V24.3H19.7674ZM24.5674 26.75L27.5674 29.8C26.1007 31.0667 24.434 32.0333 22.5674 32.7C20.7341 33.3667 18.7507 33.7 16.6174 33.7C14.3174 33.7 12.1674 33.2833 10.1674 32.45C8.16738 31.6167 6.41738 30.4667 4.91738 29C3.41738 27.5 2.25072 25.75 1.41738 23.75C0.58405 21.75 0.167383 19.5833 0.167383 17.25C0.167383 14.8833 0.58405 12.7 1.41738 10.7C2.28405 8.7 3.48405 6.95 5.01738 5.45C6.55072 3.95 8.33405 2.78333 10.3674 1.95C12.4007 1.11667 14.584 0.699998 16.9174 0.699998C20.0507 0.699998 22.8007 1.4 25.1674 2.8C27.5674 4.2 29.4341 6.13333 30.7674 8.6C32.1341 11.0667 32.8174 13.9 32.8174 17.1C32.8174 18.5333 32.6674 19.85 32.3674 21.05C32.1007 22.2167 31.6507 23.3 31.0174 24.3L26.3174 24.15C26.8174 23.5167 27.2174 22.8333 27.5174 22.1C27.8174 21.3667 28.0341 20.5667 28.1674 19.7C28.3341 18.8 28.4174 17.8167 28.4174 16.75C28.4174 14.2167 27.9674 12.0833 27.0674 10.35C26.2007 8.58333 24.9174 7.25 23.2174 6.35C21.5174 5.41667 19.4507 4.95 17.0174 4.95C14.5174 4.95 12.3507 5.45 10.5174 6.45C8.68405 7.45 7.26738 8.86667 6.26738 10.7C5.30072 12.5333 4.81738 14.7333 4.81738 17.3C4.81738 19.8 5.28405 21.9667 6.21738 23.8C7.18405 25.6 8.55072 27 10.3174 28C12.084 28.9667 14.1507 29.45 16.5174 29.45C18.1841 29.45 19.6841 29.2333 21.0174 28.8C22.3507 28.3333 23.5341 27.65 24.5674 26.75ZM21.5674 20.8H31.0174V24.3H21.5674V20.8Z" fill="#1358E3"/>
</svg>
